<svg xmlns="http://www.w3.org/2000/svg" width="440" height="280" viewBox="0 0 440 280">
  <defs>
    <pattern id="grain" width="23" height="21" patternUnits="userSpaceOnUse">
      <circle cx="5" cy="7" r="0.7" fill="#706855" opacity=".11"/>
      <circle cx="18" cy="15" r="0.55" fill="#706855" opacity=".08"/>
    </pattern>
    <filter id="shadow" x="-20%" y="-20%" width="140%" height="140%">
      <feDropShadow dx="0" dy="8" stdDeviation="9" flood-color="#312d26" flood-opacity=".22"/>
    </filter>
  </defs>
  <rect width="440" height="280" fill="#d5d0c4"/>
  <rect x="18" y="18" width="404" height="244" rx="3" fill="#f4f0e5" stroke="#80745d" stroke-opacity=".36" filter="url(#shadow)"/>
  <rect x="18" y="18" width="404" height="244" rx="3" fill="url(#grain)"/>
  <circle cx="340" cy="135" r="82" fill="none" stroke="#617265" stroke-opacity=".12" stroke-width="2"/>
  <circle cx="340" cy="135" r="58" fill="none" stroke="#617265" stroke-opacity=".09" stroke-width="16"/>
  <text x="340" y="166" text-anchor="middle" fill="#202522" opacity=".08" font-family="'Kaiti SC','STKaiti','KaiTi',serif" font-size="92">诗</text>
  <rect x="48" y="48" width="48" height="48" rx="5" fill="#9f3f32" stroke="#7f3027" stroke-width="2" transform="rotate(-2 72 72)"/>
  <rect x="53" y="53" width="38" height="38" rx="3" fill="none" stroke="#fff8ee" stroke-opacity=".28"/>
  <text x="72" y="82" text-anchor="middle" fill="#fff8ee" font-family="'Kaiti SC','STKaiti','KaiTi',serif" font-size="28" font-weight="700">诗</text>
  <text x="116" y="78" fill="#202522" font-family="'Songti SC','STSong','Noto Serif CJK SC',serif" font-size="29" font-weight="600" letter-spacing="5">诗意一刻</text>
  <text x="117" y="103" fill="#5f665f" font-family="'PingFang SC','Microsoft YaHei',sans-serif" font-size="10" letter-spacing="1.6">100 篇深度精读 · 本地间隔复习</text>
  <line x1="49" y1="132" x2="261" y2="132" stroke="#c9c1af"/>
  <text x="49" y="169" fill="#202522" font-family="'Songti SC','STSong','Noto Serif CJK SC',serif" font-size="18" letter-spacing="2">从读懂一句</text>
  <text x="49" y="201" fill="#202522" font-family="'Songti SC','STSong','Noto Serif CJK SC',serif" font-size="18" letter-spacing="2">到真正记住一首</text>
  <line x1="49" y1="226" x2="82" y2="226" stroke="#9f3f32" stroke-width="2"/>
  <text x="94" y="230" fill="#9f3f32" font-family="'PingFang SC','Microsoft YaHei',sans-serif" font-size="10" font-weight="600" letter-spacing="2">逐句点注 · 主动回想</text>
</svg>
